<svg xmlns="http://www.w3.org/2000/svg" version="1.1" viewBox="414.65 289.65 170 170" width="170" height="170" xmlns:xlink="http://www.w3.org/1999/xlink" xmlns:svgjs="http://svgjs.dev/svgjs"><path fill="#2e3340" d="M443.37 318.43C443.95 315.8 443.89 312.73 444.39 310.52Q447.8 295.39 462.89 291.42C465.26 290.79 469.3 290.67 471.74 291.31 494.22 297.23 497.35 320.66 497.84 340.01Q498.25 356.02 496.95 372.02A.26.26 0 0 1 496.7 372.26C477.17 373.57 455.73 374.51 436.77 368.78Q426.8 365.77 420.82 357.16C408.12 338.89 421.38 318.37 442.7 318.94Q443.25 318.96 443.37 318.43ZM456.54 331.3Q451.5 330.9 446.51 330.22 442.81 329.71 436.19 331.58 431.29 332.96 429.08 337.5C425.01 345.83 432.17 353.96 439.57 356.76 453.71 362.12 469.85 361.04 484.86 360.93Q485.92 360.92 485.95 359.86C486.32 345.16 487.01 329.56 482.61 315.34 480.38 308.13 472.48 300 464.25 303.08Q456.91 305.83 456.19 314.01C455.53 321.53 455.97 325.65 457.02 330.76Q457.14 331.34 456.54 331.3ZM557.31 319.06Q568.62 318.59 576.01 324.93 583.25 331.14 584.07 340.44 584.69 347.49 581.18 354.04C573.04 369.18 554.74 372.25 538.5 372.83Q521.05 373.45 503.63 372.28 503.14 372.25 503.09 371.75C501.43 353.42 501.04 333.75 505.27 315.76 509.25 298.78 527.21 283.59 544.67 294.6Q554.88 301.03 555.94 313.03 556.23 316.35 556.62 318.51 556.73 319.09 557.31 319.06ZM543.15 331.25C544.08 328.28 544.02 325.25 544.42 322.29 544.79 319.43 544.34 316.94 544.07 314.21 543.56 309.07 540.93 305.38 536.07 303.43 529.28 300.7 522.31 306.09 519.11 311.87 515.95 317.58 515.31 325.42 514.44 332.42 513.33 341.48 513.99 351.39 514.01 360.5A.5.5 0 0 0 514.51 361Q525.98 361.01 537.47 360.99C541.83 360.99 546.13 360.26 550.5 359.78 558.96 358.87 573.28 353.04 572.25 341.68 571.37 331.93 560.75 329.68 552.82 330.67Q550.25 330.99 547.66 331.04C546.28 331.07 545 331.69 543.58 331.79Q542.96 331.84 543.15 331.25ZM443.55 431.07C431.25 430.95 421.96 426.34 417.29 414.75 415.12 409.38 415.57 404.08 417.87 398.63Q423.68 384.8 438.76 380.58 449.5 377.57 461.5 377.14 479.26 376.51 497 377.76 497.5 377.79 497.53 378.3 498.51 398.19 497.84 416.24 497.43 427.31 493.89 438.39C490.46 449.14 479.51 458.74 468.08 459.06 458.13 459.34 448.36 451.86 445.53 442.24Q443.96 436.91 443.93 431.44A.38.37 0 0 0 443.55 431.07ZM456.99 418.73C455.52 427.2 453.06 441.51 463.67 446.27 471.95 449.98 480.52 441.42 482.69 434.42Q485.35 425.81 485.78 418.49 486.53 406.09 485.9 389.49 485.88 389 485.39 389C479.88 389.08 474.33 388.39 469.03 388.65Q463.97 388.9 458.9 389.02C455.75 389.1 452.6 389.8 449.37 390.1Q444.95 390.51 438.06 393.32C432.49 395.59 425.98 403.69 428.23 410.23Q430.79 417.66 439 418.85 446.42 419.93 456.31 418.05A.59.59 0 0 1 456.99 418.73ZM555.99 432.26C557.13 450.65 539.94 464.44 522.78 456.79 510.34 451.24 504.85 438.7 503.22 425.74 501.25 410.12 501.7 393.98 502.72 378.29Q502.76 377.78 503.28 377.74 520.91 376.56 538.49 377.23C556 377.91 576.04 381.15 582.83 400.18 585.59 407.91 583.87 415.49 578.73 421.84Q570.94 431.46 557.28 430.94A1.25 1.25 0 0 0 555.99 432.26ZM543.79 417.97C548.96 418.95 553.22 419.43 560.74 418.96 562.57 418.85 565.46 417.84 566.92 416.84 572.97 412.69 573.86 405.95 569.93 399.91 563.62 390.22 547.43 389.22 537.21 388.94 533.07 388.82 529.09 388.36 524.93 388.65Q519.76 389.01 514.52 389.03 514.02 389.03 514.02 389.54 513.96 400.28 514.01 411.02C514.03 415.23 514.78 419.55 515.13 423.87Q515.54 428.93 518.41 436.53C521.55 444.84 533.13 451.42 540.64 443.49 546.19 437.65 544.63 425.82 543.22 418.55Q543.08 417.84 543.79 417.97Z" data-c-fill="fefefe"/></svg>